<svg class="ait-w-[16px] ait-h-[16px] ait-o1" xmlns="http://www.w3.org/2000/svg" viewBox="0 0 16 16" fill="none"> <path d="M0 8C0 3.58172 3.58172 0 8 0C12.4183 0 16 3.58172 16 8C16 12.4183 12.4183 16 8 16C3.58172 16 0 12.4183 0 8Z" fill="url(#ait-o1_linear)"></path> <g filter="url(#ait-o1_filter)"> <path d="M13.1348 6.91143C13.4071 6.0943 13.3133 5.19918 12.878 4.45593C12.2232 3.31593 10.907 2.72943 9.62146 3.00543C9.04958 2.36118 8.22796 1.99481 7.36658 2.00006C6.05258 1.99706 4.88671 2.84306 4.48246 4.09331C3.63833 4.26618 2.90971 4.79456 2.48333 5.54343C1.82371 6.68043 1.97408 8.11368 2.85533 9.08868C2.58308 9.9058 2.67683 10.8009 3.11221 11.5442C3.76696 12.6842 5.08321 13.2707 6.36871 12.9947C6.94021 13.6389 7.76221 14.0053 8.62358 13.9997C9.93833 14.0031 11.1046 13.1563 11.5088 11.9049C12.353 11.7321 13.0816 11.2037 13.508 10.4548C14.1668 9.3178 14.0157 7.88643 13.1348 6.91143ZM8.62433 13.2156C8.09821 13.2163 7.58858 13.0322 7.18471 12.6951C7.20308 12.6853 7.23496 12.6677 7.25558 12.6549L9.64508 11.2749C9.76733 11.2056 9.84233 11.0754 9.84158 10.9348V7.56618L10.8515 8.1493C10.8623 8.15455 10.8695 8.16505 10.871 8.17705V10.9667C10.8695 12.2072 9.86483 13.2129 8.62433 13.2156ZM3.79283 11.1519C3.52921 10.6967 3.43433 10.1631 3.52471 9.64518C3.54233 9.65568 3.57346 9.6748 3.59558 9.68755L5.98508 11.0676C6.10621 11.1384 6.25621 11.1384 6.37771 11.0676L9.29483 9.38305V10.5493C9.29558 10.5613 9.28996 10.5729 9.28058 10.5804L6.86521 11.9751C5.78933 12.5946 4.41496 12.2263 3.79283 11.1519ZM3.16396 5.93605C3.42646 5.48006 3.84083 5.1313 4.33433 4.95018C4.33433 4.97081 4.33321 5.00718 4.33321 5.03268V7.79305C4.33246 7.9333 4.40746 8.06343 4.52933 8.1328L7.44646 9.81693L6.43658 10.4001C6.42646 10.4068 6.41371 10.4079 6.40246 10.4031L3.98671 9.0073C2.91308 8.38555 2.54521 7.01155 3.16396 5.93605ZM11.4612 7.86693L8.54408 6.18243L9.55396 5.59968C9.56408 5.59293 9.57683 5.59181 9.58808 5.59668L12.0038 6.9913C13.0793 7.61268 13.448 8.98855 12.8266 10.0641C12.5637 10.5193 12.1497 10.8681 11.6566 11.0496V8.20668C11.6577 8.06643 11.5827 7.93668 11.4612 7.86693ZM12.4662 6.35418C12.4486 6.34331 12.4175 6.32455 12.3953 6.3118L10.0058 4.93181C9.88471 4.86093 9.73471 4.86093 9.61321 4.93181L6.69608 6.6163V5.45005C6.69533 5.43805 6.70096 5.42643 6.71033 5.41893L9.12571 4.02543C10.2016 3.40481 11.5771 3.77418 12.1973 4.85043C12.4595 5.30493 12.5551 5.83706 12.4662 6.35418ZM6.14708 8.4328L5.13683 7.84968C5.12596 7.84443 5.11883 7.83393 5.11733 7.82193V5.03231C5.11808 3.79031 6.12571 2.78381 7.36771 2.78456C7.89308 2.78456 8.40158 2.96906 8.80546 3.30506C8.78708 3.31481 8.75558 3.33243 8.73458 3.34518L6.34508 4.72518C6.22283 4.79456 6.14783 4.92431 6.14858 5.06493L6.14708 8.4328ZM6.69571 7.25005L7.99508 6.49968L9.29446 7.24968V8.75005L7.99508 9.50005L6.69571 8.75005V7.25005Z" fill="white"></path> </g> <defs> <filter id="ait-o1_filter" x="0.0749512" y="0" width="15.8406" height="15.9998" filterUnits="userSpaceOnUse" color-interpolation-filters="sRGB"> <feFlood flood-opacity="0" result="BackgroundImageFix"></feFlood> <feColorMatrix in="SourceAlpha" type="matrix" values="0 0 0 0 0 0 0 0 0 0 0 0 0 0 0 0 0 0 127 0" result="hardAlpha"></feColorMatrix> <feOffset></feOffset> <feGaussianBlur stdDeviation="1"></feGaussianBlur> <feComposite in2="hardAlpha" operator="out"></feComposite> <feColorMatrix type="matrix" values="0 0 0 0 0 0 0 0 0 0 0 0 0 0 0 0 0 0 0.3 0"></feColorMatrix> <feBlend mode="normal" in2="BackgroundImageFix" result="o1_dropshadow"></feBlend> <feBlend mode="normal" in="SourceGraphic" in2="o1_dropshadow" result="shape"></feBlend> </filter> <linearGradient id="ait-o1_linear" x1="2" y1="2" x2="14" y2="14" gradientUnits="userSpaceOnUse"> <stop offset="0.2" stop-color="#F9D914"></stop> <stop offset="0.6" stop-color="#D8E0A2"></stop> <stop offset="1" stop-color="#56A9CB"></stop> </linearGradient> </defs> </svg>