<svg class="ait-w-[16px] ait-h-[16px] ait-Llama 3.1 405B" xmlns="http://www.w3.org/2000/svg" viewBox="0 0 16 16" fill="none"> <rect width="16" height="16" rx="8" fill="url(#ait-llama_flash_linear_color_1)"></rect> <rect width="16" height="16" rx="8" fill="url(#ait-llama_flash_linear_color_1)"></rect> <path fill-rule="evenodd" clip-rule="evenodd" d="M9.05626 4.53918C9.53096 4.12535 10.0427 3.89546 10.5579 3.89546C11.4229 3.89546 12.2468 4.39672 12.8774 5.33682C13.5675 6.36638 13.9025 7.66325 13.9025 9.00152C13.9025 9.79713 13.7457 10.3817 13.4788 10.8436C13.221 11.2902 12.7185 11.7364 11.8733 11.7364C11.3478 11.7364 10.8823 11.6222 10.3675 11.1365C9.97189 10.7637 9.50905 10.1016 9.15313 9.50633L8.09439 7.73782C8.0642 7.68737 8.03415 7.63765 8.00426 7.58868L7.91292 7.75048L7.54097 8.40938C6.79391 9.73434 6.60462 10.036 6.23104 10.5338C5.5763 11.4057 5.01714 11.7362 4.28111 11.7362C3.40791 11.7362 2.85577 11.3581 2.51379 10.7883C2.23465 10.3241 2.09753 9.7148 2.09753 9.02065C2.09753 7.75829 2.44402 6.44258 3.10291 5.42652C3.68749 4.52543 4.53112 3.89526 5.49872 3.89526C6.05906 3.89526 6.61624 4.06111 7.19785 4.53611C7.50448 4.78632 7.82084 5.11461 8.16103 5.54533C8.43741 5.17199 8.73552 4.8189 9.05626 4.53918ZM3.60085 10.0724C3.4715 9.863 3.3726 9.51696 3.3726 9.06619C3.3726 7.97339 3.68254 6.83544 4.18874 6.07147C4.54669 5.53081 4.97447 5.17735 5.47815 5.17735C6.1005 5.17735 6.4905 5.56651 6.79391 5.88881C6.94538 6.04988 7.15623 6.31551 7.40134 6.66455L6.89938 7.43579C6.52704 8.00766 5.97377 8.91983 5.50401 9.56967C4.9178 10.3805 4.6136 10.463 4.28111 10.463C4.02329 10.463 3.77041 10.3466 3.60085 10.0724ZM12.7776 9.03662C12.7776 9.79773 12.597 10.4628 11.8733 10.4628C11.5879 10.4628 11.3683 10.3495 11.0547 9.96941C10.8108 9.67341 10.3942 9.04572 9.6618 7.82564L9.35843 7.32003C9.14209 6.95969 8.93672 6.63555 8.74022 6.34399C8.77523 6.28974 8.81008 6.23678 8.84482 6.18515C9.39616 5.36545 9.88674 4.90559 10.4964 4.90559C11.06 4.90559 11.5724 5.27833 11.9677 5.88837C12.5247 6.74842 12.7776 7.95203 12.7776 9.03662Z" fill="white"></path> <defs> <linearGradient id="ait-llama_flash_linear_color_1" x1="14" y1="2" x2="2" y2="14" gradientUnits="userSpaceOnUse"> <stop stop-color="#0081FB"></stop> <stop offset="1" stop-color="#0165E2"></stop> </linearGradient> <linearGradient id="ait-llama_flash_linear_color_1" x1="12.5" y1="1.5" x2="2.5" y2="16" gradientUnits="userSpaceOnUse"> <stop stop-color="#F0A3DB"></stop> <stop offset="1" stop-color="#006AFF"></stop> </linearGradient> </defs> </svg>