<svg class="ait-w-[16px] ait-h-[16px] ait-Claude 3.5 Haiku" width="16" height="16" xmlns="http://www.w3.org/2000/svg" viewBox="0 0 16 16" fill="none"><rect width="100%" height="100%" rx="8" fill="#F0E8D6"></rect><path d="M4.67668 9.70835L6.71408 8.5651L6.74817 8.46546L6.71408 8.41039H6.61444L6.27356 8.38941L5.10934 8.35795L4.09981 8.31599L3.12176 8.26355L2.87528 8.21111L2.64453 7.90694L2.66813 7.75486L2.87528 7.61588L3.17158 7.64211L3.82711 7.68668L4.81041 7.75486L5.52363 7.79681L6.58035 7.90694H6.74817L6.77177 7.83877L6.71408 7.79681L6.6695 7.75486L5.65212 7.06524L4.55082 6.33628L3.97395 5.91674L3.66192 5.70435L3.50459 5.50507L3.43642 5.06979L3.71961 4.75776L4.09981 4.78398L4.19683 4.8102L4.58229 5.1065L5.40564 5.74368L6.48071 6.53557L6.63804 6.66667L6.70097 6.6221L6.70884 6.59063L6.63804 6.47264L6.0533 5.41592L5.42924 4.34084L5.15129 3.89508L5.07787 3.62762C5.05165 3.51749 5.03329 3.42572 5.03329 3.31297L5.35582 2.87507L5.53412 2.81738L5.96415 2.87507L6.14508 3.0324L6.41253 3.64335L6.84519 4.60568L7.51645 5.91412L7.71311 6.3022L7.818 6.66143L7.85733 6.77156H7.92551V6.70863L7.98057 5.97181L8.08283 5.06717L8.18247 3.90295L8.21656 3.57518L8.37913 3.18186L8.70166 2.96947L8.95338 3.09008L9.16053 3.38639L9.13169 3.5778L9.00845 4.37755L8.76721 5.63093L8.60988 6.47001H8.70166L8.80654 6.36513L9.23133 5.80137L9.94455 4.90984L10.2592 4.55586L10.6263 4.16516L10.8623 3.97899H11.3081L11.6358 4.4667L11.489 4.97015L11.0301 5.55227L10.6499 6.04523L10.1045 6.77942L9.76362 7.36678L9.79509 7.41398L9.87637 7.40611L11.1088 7.1439L11.7748 7.02328L12.5693 6.88693L12.9285 7.05475L12.9679 7.22519L12.8263 7.57393L11.9767 7.7837L10.9803 7.98298L9.49616 8.33435L9.47781 8.34746L9.49878 8.37368L10.1674 8.43661L10.4532 8.45234H11.1533L12.4565 8.54936L12.7974 8.77487L13.002 9.05019L12.9679 9.25996L12.4434 9.52742L11.7355 9.3596L10.0835 8.96628L9.51714 8.82469H9.43848V8.87189L9.91046 9.33338L10.7758 10.1148L11.8587 11.1217L11.9138 11.3708L11.7748 11.5674L11.628 11.5465L10.6761 10.8306L10.309 10.5081L9.47781 9.80799H9.42274V9.88141L9.61416 10.162L10.6263 11.6828L10.6787 12.1496L10.6053 12.3016L10.3431 12.3934L10.0547 12.341L9.46207 11.5097L8.85112 10.5736L8.35816 9.73457L8.29785 9.76865L8.00679 12.9021L7.87044 13.0621L7.55578 13.1827L7.29357 12.9834L7.1546 12.6609L7.29357 12.0237L7.46139 11.1925L7.59774 10.5317L7.72098 9.71097L7.7944 9.43827L7.78915 9.41991L7.72885 9.42778L7.11002 10.2773L6.16868 11.5491L5.42399 12.3462L5.24569 12.417L4.93627 12.2571L4.96512 11.9712L5.13818 11.7169L6.16868 10.4058L6.79012 9.59297L7.19131 9.12361L7.18869 9.05544H7.16509L4.42758 10.8332L3.93986 10.8962L3.73009 10.6995L3.75632 10.377L3.85596 10.2721L4.67931 9.70572L4.67668 9.70835Z" fill="#D97757"></path></svg>