<svg class="ait-w-4 ait-h-4 ait-gift_icon" xmlns="http://www.w3.org/2000/svg" viewBox="0 0 14 14" fill="none"><g clip-path="url(#ait-clip0_11821_42642)"><path d="M2.18208 6.77174H11.8179M2.18208 6.77174C1.64991 6.77174 1.21851 6.34033 1.21851 5.80816V4.84458C1.21851 4.31241 1.64991 3.881 2.18208 3.881H11.8179C12.35 3.881 12.7814 4.31241 12.7814 4.84458V5.80816C12.7814 6.34033 12.35 6.77174 11.8179 6.77174M2.18208 6.77174L2.18208 11.5896C2.18208 12.1218 2.61349 12.5532 3.14566 12.5532H10.8543C11.3865 12.5532 11.8179 12.1218 11.8179 11.5896V6.77174M6.99998 3.881L9.31257 3.11014C9.67652 2.98882 9.96211 2.70323 10.0834 2.33927C10.401 1.38644 9.49454 0.479936 8.5417 0.797549C8.17775 0.918867 7.89216 1.20446 7.77084 1.56841L6.99998 3.881ZM6.99998 3.881L4.68739 3.11014C4.32344 2.98882 4.03784 2.70323 3.91653 2.33927C3.59891 1.38644 4.50541 0.479936 5.45825 0.797549C5.8222 0.918867 6.1078 1.20446 6.22911 1.56841L6.99998 3.881ZM6.99998 3.881V12.5532" stroke="currentColor" stroke-width="1.2"></path></g><defs><clipPath id="ait-clip0_11821_42642"><rect width="14" height="14" fill="white"></rect></clipPath></defs></svg>