<svg width="25" height="25" viewBox="0 0 40 40" fill="none" xmlns="http://www.w3.org/2000/svg" style="max-width: 25px;"><path fill-rule="evenodd" clip-rule="evenodd" d="M11.1524 6.83074C11.1524 3.6117 13.7641 1 16.9831 1C20.2021 1 22.8138 3.6117 22.8138 6.83074V7.76822H27.9815C30.7352 7.76822 32.9662 9.99923 32.9662 12.7529V17.9206H33.9037C37.1227 17.9206 39.7344 20.5323 39.7344 23.7514C39.7344 26.9704 37.1227 29.5821 33.9037 29.5821H32.9662V34.7497C32.9662 37.5034 30.7352 39.7344 27.9815 39.7344H19.9511V35.5957C19.9511 33.9586 18.6203 32.6278 16.9831 32.6278C15.3459 32.6278 14.0151 33.9586 14.0151 35.5957V39.7344H5.98473C3.23101 39.7344 1 37.5034 1 34.7497L1.01059 26.7193H5.13867C6.77585 26.7193 8.10663 25.3885 8.10663 23.7513C8.10663 22.1141 6.77585 20.7833 5.13867 20.7833H1.00633L1.01692 12.7529C1.01692 12.7526 1.01692 12.7522 1.01692 12.7518C1.01755 10.0091 3.22096 7.76822 5.98473 7.76822H11.1524V6.83074ZM16.9831 4.20119C15.532 4.20119 14.3535 5.37967 14.3535 6.83074V10.9694H5.98473C5.00942 10.9694 4.21811 11.7567 4.21811 12.7529L4.21174 17.5822H5.13867C8.54382 17.5822 11.3078 20.3462 11.3078 23.7513C11.3078 27.1565 8.54382 29.9205 5.13867 29.9205H4.20756L4.20119 34.7497C4.20119 34.75 4.20119 34.7503 4.20119 34.7506C4.20168 35.7359 4.99928 36.5332 5.98473 36.5332H10.8139V35.5957C10.8139 32.1906 13.5779 29.4266 16.9831 29.4266C20.3882 29.4266 23.1522 32.1906 23.1522 35.5957V36.5332H27.9815C28.9672 36.5332 29.765 35.7354 29.765 34.7497V26.3809H33.9037C35.3547 26.3809 36.5332 25.2024 36.5332 23.7514C36.5332 22.3003 35.3547 21.1218 33.9037 21.1218H29.765V12.7529C29.765 11.7672 28.9672 10.9694 27.9815 10.9694H19.6126V6.83074C19.6126 5.37967 18.4342 4.20119 16.9831 4.20119Z" fill="white"></path><path fill-rule="evenodd" clip-rule="evenodd" d="M11.1524 6.83074C11.1524 3.6117 13.7641 1 16.9831 1C20.2021 1 22.8138 3.6117 22.8138 6.83074V7.76822H27.9815C30.7352 7.76822 32.9662 9.99923 32.9662 12.7529V17.9206H33.9037C37.1227 17.9206 39.7344 20.5323 39.7344 23.7514C39.7344 26.9704 37.1227 29.5821 33.9037 29.5821H32.9662V34.7497C32.9662 37.5034 30.7352 39.7344 27.9815 39.7344H19.9511V35.5957C19.9511 33.9586 18.6203 32.6278 16.9831 32.6278C15.3459 32.6278 14.0151 33.9586 14.0151 35.5957V39.7344H5.98473C3.23101 39.7344 1 37.5034 1 34.7497L1.01059 26.7193H5.13867C6.77585 26.7193 8.10663 25.3885 8.10663 23.7513C8.10663 22.1141 6.77585 20.7833 5.13867 20.7833H1.00633L1.01692 12.7529C1.01692 12.7526 1.01692 12.7522 1.01692 12.7518C1.01755 10.0091 3.22096 7.76822 5.98473 7.76822H11.1524V6.83074ZM16.9831 4.20119C15.532 4.20119 14.3535 5.37967 14.3535 6.83074V10.9694H5.98473C5.00942 10.9694 4.21811 11.7567 4.21811 12.7529L4.21174 17.5822H5.13867C8.54382 17.5822 11.3078 20.3462 11.3078 23.7513C11.3078 27.1565 8.54382 29.9205 5.13867 29.9205H4.20756L4.20119 34.7497C4.20119 34.75 4.20119 34.7503 4.20119 34.7506C4.20168 35.7359 4.99928 36.5332 5.98473 36.5332H10.8139V35.5957C10.8139 32.1906 13.5779 29.4266 16.9831 29.4266C20.3882 29.4266 23.1522 32.1906 23.1522 35.5957V36.5332H27.9815C28.9672 36.5332 29.765 35.7354 29.765 34.7497V26.3809H33.9037C35.3547 26.3809 36.5332 25.2024 36.5332 23.7514C36.5332 22.3003 35.3547 21.1218 33.9037 21.1218H29.765V12.7529C29.765 11.7672 28.9672 10.9694 27.9815 10.9694H19.6126V6.83074C19.6126 5.37967 18.4342 4.20119 16.9831 4.20119Z" fill="url(#paint0_linear_18267_3259)"></path><defs><linearGradient id="paint0_linear_18267_3259" x1="9.30023" y1="18.1538" x2="24.794" y2="40.2877" gradientUnits="userSpaceOnUse"><stop stop-color="rgba(1, 167, 125, .9)"></stop><stop offset="1" stop-color="#60a5fa"></stop></linearGradient></defs></svg>