<svg class="ait-w-3.5 ait-h-3.5 ait-at_icon" width="14" height="14" viewBox="0 0 14 14" fill="none" xmlns="http://www.w3.org/2000/svg"><path fill-rule="evenodd" clip-rule="evenodd" d="M11.03 2.31c1.014 1.048 1.36 2.47 1.36 3.688 0 1.294-.638 2.546-1.408 3.393-.388.427-.833.778-1.286.983-.445.201-.977.293-1.459.053a1 1 0 0 1-.475-.528c-.797.772-1.983 1.077-3.082.528-1.136-.568-1.424-1.846-1.347-2.948.077-1.114.535-2.308 1.21-2.983.945-.945 2.12-1.329 3.126-1.055.555.152 1.01.49 1.313.973q.073-.171.142-.326a.525.525 0 0 1 .977.38c-.26.779-.765 2.243-1.208 3.38-.129.509-.203.95-.207 1.28a1.1 1.1 0 0 0 .047.37c.092.035.26.041.53-.08.29-.132.622-.382.942-.733.644-.708 1.136-1.719 1.136-2.687 0-1.045-.3-2.168-1.066-2.958-.746-.771-2.02-1.314-4.164-1.046-1.827.228-3.242 1.494-3.944 3.13-.703 1.638-.661 3.581.357 5.108.611.917 1.893 1.64 3.475 1.855a7.17 7.17 0 0 0 4.911-1.117.525.525 0 1 1 .58.875 8.22 8.22 0 0 1-5.633 1.282c-1.778-.242-3.379-1.07-4.207-2.313C.405 8.947.382 6.621 1.202 4.71 2.023 2.797 3.72 1.235 5.981.952c2.38-.297 4.017.291 5.049 1.358M8.35 6.039v-.041c0-.937-.446-1.405-.957-1.544-.55-.15-1.354.031-2.107.784-.45.45-.84 1.377-.906 2.314-.066.951.209 1.655.77 1.936.824.412 1.826.025 2.287-.897.124-.247.282-.624.454-1.063l.017-.066c.122-.464.277-.95.443-1.423" fill="currentColor"></path></svg>