<svg width="18" height="19" viewBox="0 0 38 39" fill="none" xmlns="http://www.w3.org/2000/svg"><path fill-rule="evenodd" clip-rule="evenodd" d="M11.8795 10.3401C11.8795 6.79968 14.7411 3.84276 18.3761 3.84276C22.011 3.84276 24.8727 6.79968 24.8727 10.3401C24.8727 13.8804 22.011 16.8374 18.3761 16.8374C18.1848 16.8374 18.0003 16.8673 17.8267 16.9229C15.64 17.0126 13.4838 17.502 11.4584 18.3704C9.20642 19.336 7.16019 20.7513 5.43658 22.5354C3.71298 24.3196 2.34573 26.4377 1.41292 28.7689C0.480111 31.1 0 33.5985 0 36.1217C0 37.1828 0.831034 38.043 1.85617 38.043H35.2672C36.2923 38.043 37.1233 37.1828 37.1233 36.1217C37.1233 33.5985 36.6432 31.1 35.7104 28.7689C34.7776 26.4377 33.4104 24.3196 31.6867 22.5354C30.9619 21.7851 29.7866 21.7851 29.0617 22.5354C28.3368 23.2858 28.3368 24.5023 29.0617 25.2527C30.4406 26.68 31.5344 28.3745 32.2807 30.2394C32.7889 31.5096 33.1292 32.8419 33.2945 34.2003L3.8288 34.2003C3.99413 32.8419 4.3344 31.5096 4.84267 30.2394C5.58892 28.3745 6.68271 26.68 8.0616 25.2527C9.44049 23.8254 11.0775 22.6931 12.8791 21.9207C14.6807 21.1482 16.6116 20.7506 18.5617 20.7506C18.7692 20.7506 18.9688 20.7154 19.1551 20.6503C24.3899 20.2483 28.585 15.8289 28.585 10.3401C28.585 4.58142 23.9673 0 18.3761 0C12.7848 0 8.16717 4.58142 8.16717 10.3401C8.16717 11.4012 8.9982 12.2614 10.0233 12.2614C11.0485 12.2614 11.8795 11.4012 11.8795 10.3401Z" fill="white"></path><path fill-rule="evenodd" clip-rule="evenodd" d="M11.8795 10.3401C11.8795 6.79968 14.7411 3.84276 18.3761 3.84276C22.011 3.84276 24.8727 6.79968 24.8727 10.3401C24.8727 13.8804 22.011 16.8374 18.3761 16.8374C18.1848 16.8374 18.0003 16.8673 17.8267 16.9229C15.64 17.0126 13.4838 17.502 11.4584 18.3704C9.20642 19.336 7.16019 20.7513 5.43658 22.5354C3.71298 24.3196 2.34573 26.4377 1.41292 28.7689C0.480111 31.1 0 33.5985 0 36.1217C0 37.1828 0.831034 38.043 1.85617 38.043H35.2672C36.2923 38.043 37.1233 37.1828 37.1233 36.1217C37.1233 33.5985 36.6432 31.1 35.7104 28.7689C34.7776 26.4377 33.4104 24.3196 31.6867 22.5354C30.9619 21.7851 29.7866 21.7851 29.0617 22.5354C28.3368 23.2858 28.3368 24.5023 29.0617 25.2527C30.4406 26.68 31.5344 28.3745 32.2807 30.2394C32.7889 31.5096 33.1292 32.8419 33.2945 34.2003L3.8288 34.2003C3.99413 32.8419 4.3344 31.5096 4.84267 30.2394C5.58892 28.3745 6.68271 26.68 8.0616 25.2527C9.44049 23.8254 11.0775 22.6931 12.8791 21.9207C14.6807 21.1482 16.6116 20.7506 18.5617 20.7506C18.7692 20.7506 18.9688 20.7154 19.1551 20.6503C24.3899 20.2483 28.585 15.8289 28.585 10.3401C28.585 4.58142 23.9673 0 18.3761 0C12.7848 0 8.16717 4.58142 8.16717 10.3401C8.16717 11.4012 8.9982 12.2614 10.0233 12.2614C11.0485 12.2614 11.8795 11.4012 11.8795 10.3401Z" fill="url(#paint0_linear_18047_3240)"></path><defs><linearGradient id="paint0_linear_18047_3240" x1="7.955" y1="16.8477" x2="23.2962" y2="38.2338" gradientUnits="userSpaceOnUse"><stop stop-color="rgba(1, 167, 125, .9)"></stop><stop offset="1" stop-color="#60a5fa"></stop></linearGradient></defs></svg>