<svg aria-label="Kit:" class="logo--full" width="833" height="374" viewBox="0 0 833 374" fill="none" xmlns="http://www.w3.org/2000/svg">
  <path d="M736.903 325.809C736.903 316.28 739.721 306.964 745 299.04C750.28 291.116 757.784 284.941 766.564 281.294C775.344 277.647 785.005 276.693 794.325 278.552C803.646 280.411 812.207 285 818.927 291.739C825.647 298.477 830.223 307.063 832.077 316.41C833.931 325.757 832.979 335.445 829.343 344.249C825.706 353.053 819.547 360.578 811.646 365.873C803.744 371.167 794.455 373.994 784.952 373.994C778.614 374.096 772.319 372.919 766.444 370.534C760.568 368.149 755.23 364.604 750.748 360.109C746.266 355.614 742.731 350.262 740.352 344.369C737.974 338.477 736.801 332.165 736.903 325.809ZM736.903 172.343C736.903 162.813 739.721 153.497 745 145.574C750.28 137.65 757.784 131.473 766.564 127.826C775.344 124.179 785.005 123.225 794.325 125.085C803.646 126.944 812.207 131.533 818.927 138.271C825.647 145.01 830.223 153.596 832.077 162.942C833.931 172.289 832.979 181.977 829.343 190.781C825.706 199.586 819.547 207.112 811.646 212.406C803.744 217.701 794.455 220.526 784.952 220.526C778.614 220.629 772.319 219.453 766.444 217.068C760.568 214.683 755.23 211.137 750.748 206.643C746.266 202.148 742.731 196.795 740.352 190.903C737.974 185.011 736.801 178.699 736.903 172.343ZM630.401 298.304C630.401 318.412 638.724 329.225 656.885 329.225C675.045 329.225 683.369 318.412 683.369 287.491H719.688C719.688 350.376 689.233 373.994 629.456 373.994C560.22 373.994 539.128 341.555 539.128 297.261V162.953H490.134V126.056C545.56 126.056 574.502 84.2276 574.502 25.7052H630.401V126.056H705.501V162.953H630.401V298.304ZM376.727 48.3733C376.708 38.8207 379.516 29.4773 384.795 21.5254C390.074 13.5736 397.586 7.3715 406.382 3.70286C415.177 0.0342193 424.86 -0.936165 434.205 0.915951C443.55 2.76807 452.137 7.35908 458.88 14.1072C465.622 20.8553 470.216 29.4581 472.082 38.8258C473.947 48.1935 472.999 57.9047 469.358 66.732C465.717 75.5593 459.546 83.1056 451.627 88.4148C443.708 93.7239 434.397 96.5578 424.871 96.5578C418.525 96.6732 412.221 95.5066 406.334 93.1272C400.447 90.7478 395.098 87.204 390.605 82.7078C386.113 78.2116 382.569 72.8552 380.185 66.9566C377.801 61.0579 376.625 54.7373 376.727 48.3733ZM469.514 305.133C469.514 326.284 475.851 335.201 507.348 335.201V372.096H340.502V335.201C371.904 335.201 378.336 326.284 378.336 305.133V162.858H335.678V125.961H469.609L469.514 305.133ZM274.766 162.858L228.136 204.687L288.007 311.962C297.466 329.129 302.195 333.113 321.774 334.536V372.476H172.71V334.536C186.425 334.536 193.802 329.129 193.802 321.257C193.802 316.894 192.762 314.428 186.898 303.615L164.292 261.786L128.539 293.75V305.038C128.539 326.189 136.39 334.536 154.077 334.536V372.476H0V335.579C31.4018 335.579 37.8336 326.664 37.8336 305.512V62.9806H0V26.0838H129.012V244.239L219.245 163.521H171.197V126.625H316.951V163.521L274.766 162.858Z" fill="currentColor"></path>
</svg>