<svg width="20" height="22" viewBox="0 0 43 40" fill="none" xmlns="http://www.w3.org/2000/svg"><path fill-rule="evenodd" clip-rule="evenodd" d="M22.8423 3.0436C24.885 1.06876 27.6211 -0.0242977 30.4616 0.000409932C33.302 0.0251175 36.0188 1.1656 38.0268 3.17566C40.0348 5.18565 41.1735 7.90432 41.1981 10.746C41.2228 13.5877 40.1315 16.3257 38.1588 18.3703L38.1371 18.3928L32.7165 23.8185C32.7164 23.8186 32.7165 23.8184 32.7165 23.8185C31.6186 24.9178 30.297 25.7683 28.8418 26.3117C27.3864 26.8551 25.8313 27.0789 24.2819 26.9678C22.7324 26.8568 21.2251 26.4134 19.862 25.668C18.499 24.9225 17.3122 23.8924 16.382 22.6477C15.7881 21.8528 15.9509 20.7269 16.7458 20.133C17.5407 19.539 18.6665 19.7019 19.2605 20.4967C19.8823 21.3288 20.6755 22.0172 21.5862 22.5153C22.4969 23.0133 23.5039 23.3095 24.5388 23.3837C25.5737 23.4579 26.6125 23.3084 27.5848 22.9454C28.557 22.5823 29.44 22.0142 30.1738 21.2793L35.5831 15.8647C36.8952 14.4992 37.6214 12.673 37.6049 10.7772C37.5884 8.87653 36.8268 7.05875 35.4847 5.71527C34.1426 4.37185 32.3275 3.61014 30.4303 3.59364C28.5373 3.57717 26.713 4.304 25.3488 5.61846L22.2507 8.70169C21.5473 9.40164 20.4098 9.3989 19.7098 8.69556C19.0098 7.99222 19.0126 6.85462 19.7159 6.15467L22.8423 3.0436ZM14.0283 13.2153C15.4836 12.6719 17.0388 12.4481 18.5882 12.5592C20.1376 12.6703 21.645 13.1136 23.008 13.8591C24.3711 14.6045 25.5579 15.6346 26.488 16.8793C27.082 17.6742 26.9191 18.8001 26.1243 19.3941C25.3294 19.988 24.2035 19.8252 23.6095 19.0303C22.9878 18.1982 22.1946 17.5098 21.2838 17.0117C20.3731 16.5137 19.3662 16.2176 18.3312 16.1434C17.2963 16.0692 16.2575 16.2186 15.2853 16.5817C14.3131 16.9447 13.43 17.5129 12.6962 18.2477L7.28698 23.6624C5.97482 25.0279 5.24869 26.8541 5.26515 28.7498C5.28165 30.6505 6.04327 32.4683 7.3854 33.8118C8.72747 35.1552 10.5426 35.9169 12.4397 35.9334C14.3319 35.9499 16.1554 35.2237 17.5195 33.9103L20.5976 30.829C21.2989 30.127 22.4365 30.1265 23.1385 30.8278C23.8405 31.5291 23.8411 32.6667 23.1398 33.3687L20.0279 36.4836C17.9853 38.4585 15.2489 39.5513 12.4085 39.5266C9.56802 39.5019 6.85126 38.3614 4.84322 36.3514C2.83525 34.3414 1.69659 31.6227 1.67192 28.781C1.64725 25.9393 2.73854 23.2013 4.7113 21.1567L4.73298 21.1342L10.1536 15.7085C10.1537 15.7085 10.1535 15.7086 10.1536 15.7085C11.2515 14.6092 12.573 13.7587 14.0283 13.2153Z" fill="white"></path><path fill-rule="evenodd" clip-rule="evenodd" d="M22.8423 3.0436C24.885 1.06876 27.6211 -0.0242977 30.4616 0.000409932C33.302 0.0251175 36.0188 1.1656 38.0268 3.17566C40.0348 5.18565 41.1735 7.90432 41.1981 10.746C41.2228 13.5877 40.1315 16.3257 38.1588 18.3703L38.1371 18.3928L32.7165 23.8185C32.7164 23.8186 32.7165 23.8184 32.7165 23.8185C31.6186 24.9178 30.297 25.7683 28.8418 26.3117C27.3864 26.8551 25.8313 27.0789 24.2819 26.9678C22.7324 26.8568 21.2251 26.4134 19.862 25.668C18.499 24.9225 17.3122 23.8924 16.382 22.6477C15.7881 21.8528 15.9509 20.7269 16.7458 20.133C17.5407 19.539 18.6665 19.7019 19.2605 20.4967C19.8823 21.3288 20.6755 22.0172 21.5862 22.5153C22.4969 23.0133 23.5039 23.3095 24.5388 23.3837C25.5737 23.4579 26.6125 23.3084 27.5848 22.9454C28.557 22.5823 29.44 22.0142 30.1738 21.2793L35.5831 15.8647C36.8952 14.4992 37.6214 12.673 37.6049 10.7772C37.5884 8.87653 36.8268 7.05875 35.4847 5.71527C34.1426 4.37185 32.3275 3.61014 30.4303 3.59364C28.5373 3.57717 26.713 4.304 25.3488 5.61846L22.2507 8.70169C21.5473 9.40164 20.4098 9.3989 19.7098 8.69556C19.0098 7.99222 19.0126 6.85462 19.7159 6.15467L22.8423 3.0436ZM14.0283 13.2153C15.4836 12.6719 17.0388 12.4481 18.5882 12.5592C20.1376 12.6703 21.645 13.1136 23.008 13.8591C24.3711 14.6045 25.5579 15.6346 26.488 16.8793C27.082 17.6742 26.9191 18.8001 26.1243 19.3941C25.3294 19.988 24.2035 19.8252 23.6095 19.0303C22.9878 18.1982 22.1946 17.5098 21.2838 17.0117C20.3731 16.5137 19.3662 16.2176 18.3312 16.1434C17.2963 16.0692 16.2575 16.2186 15.2853 16.5817C14.3131 16.9447 13.43 17.5129 12.6962 18.2477L7.28698 23.6624C5.97482 25.0279 5.24869 26.8541 5.26515 28.7498C5.28165 30.6505 6.04327 32.4683 7.3854 33.8118C8.72747 35.1552 10.5426 35.9169 12.4397 35.9334C14.3319 35.9499 16.1554 35.2237 17.5195 33.9103L20.5976 30.829C21.2989 30.127 22.4365 30.1265 23.1385 30.8278C23.8405 31.5291 23.8411 32.6667 23.1398 33.3687L20.0279 36.4836C17.9853 38.4585 15.2489 39.5513 12.4085 39.5266C9.56802 39.5019 6.85126 38.3614 4.84322 36.3514C2.83525 34.3414 1.69659 31.6227 1.67192 28.781C1.64725 25.9393 2.73854 23.2013 4.7113 21.1567L4.73298 21.1342L10.1536 15.7085C10.1537 15.7085 10.1535 15.7086 10.1536 15.7085C11.2515 14.6092 12.573 13.7587 14.0283 13.2153Z" fill="url(#paint0_linear_18047_3202)"></path><defs><linearGradient id="paint0_linear_18047_3202" x1="10.1416" y1="17.5048" x2="25.9524" y2="40.0917" gradientUnits="userSpaceOnUse"><stop stop-color="rgba(1, 167, 125, .9)"></stop><stop offset="1" stop-color="#60a5fa"></stop></linearGradient></defs></svg>