<svg class="ait-w-16 ait-h-16 ait-opacity-60 ait-file_icon" style="width: 1em;height: 1em;vertical-align: middle;fill: currentColor;overflow: hidden;" viewBox="0 0 1024 1024" version="1.1" xmlns="http://www.w3.org/2000/svg"><path d="M960 512c0 247.4-200.6 448-448 448-34.1 0-67.2-3.8-99.1-11l-2.7-0.6C211.8 902.3 64 724.4 64 512 64 264.6 264.6 64 512 64c209.9 0 386.2 144.4 434.7 339.3 8.7 34.8 13.3 71.2 13.3 108.7z" fill="#885AEF"></path><path d="M960 512c0 247.4-200.6 448-448 448-34.1 0-67.2-3.8-99.1-11l-2.7-0.6-180.5-180.8 570.2-511.1 146.8 146.8c8.7 34.8 13.3 71.2 13.3 108.7z" fill="#3F2867"></path><path d="M754.4 783.3H270.1c-33 0-60-27-60-60V295.5c0-33 27-60 60-60h484.3c33 0 60 27 60 60v427.8c0 33-27 60-60 60z" fill="#F8A000"></path><path d="M568.8 736.1H329.2c-33.1 0-60-26.9-60-60V148.9c0-33.1 26.9-60 60-60h365.5c33.1 0 60 26.9 60 60V520L568.8 736.1z" fill="#B9FCF3"></path><path d="M568.6 736.1H512V88.9h182.7c33.1 0 60 26.9 60 60V520L568.6 736.1z" fill="#96F5E6"></path><path d="M557.8 176.9c0-9.8 8-17.8 17.8-17.8H668c9.8 0 17.8 8 17.8 17.8s-8 17.8-17.8 17.8h-92.4c-9.8 0-17.8-8-17.8-17.8zM435.6 259.2H668c4.9 0 9.4 2 12.6 5.2 3.2 3.3 5.2 7.7 5.2 12.6 0 9.8-8 17.8-17.8 17.8H435.6c-4.9 0-9.4-2-12.6-5.2s-5.2-7.7-5.2-12.6c0-9.8 8-17.8 17.8-17.8z" fill="#3F2867"></path><path d="M423 289.6c-3.2-3.2-5.2-7.7-5.2-12.6 0-9.8 8-17.8 17.8-17.8h76v35.6h-76c-4.9 0-9.4-2-12.6-5.2z" fill="#8363D4"></path><path d="M814.4 395.5v327.8c0 33-27 60-60 60H270.1c-33 0-60-27-60-60V295.5c0-33 27-60 60-60h136.6l105.3 100h242.4c33 0 60 27 60 60z" fill="#FFD96E"></path><path d="M814.4 395.5v327.8c0 33-27 60-60 60H512V335.5h242.4c33 0 60 27 60 60z" fill="#F7C800"></path><path d="M612.6 599h-50.7v90.3c0 11-9 20-20 20h-59.8c-11 0-20-9-20-20V599h-50.7c-16.4 0-25.8-18.7-16.1-31.9l100.6-136.5c4-5.5 10.2-8.2 16.3-8.1 6 0.1 11.9 2.8 15.8 8.1l100.6 136.5c9.9 13.2 0.4 31.9-16 31.9z" fill="#E95C94"></path><path d="M612.6 599h-50.7v90.3c0 11-9 20-20 20h-29.6V422.5c6 0.1 11.9 2.8 15.8 8.1l100.6 136.5c9.8 13.2 0.3 31.9-16.1 31.9z" fill="#E02B6C"></path></svg>