<svg class="ait-w-[16px] ait-h-[16px] ait-o3 Mini" xmlns="http://www.w3.org/2000/svg" viewBox="0 0 16 16" fill="none"> <path d="M0 8C0 3.58172 3.58172 0 8 0C12.4183 0 16 3.58172 16 8C16 12.4183 12.4183 16 8 16C3.58172 16 0 12.4183 0 8Z" fill="url(#ait-o3_linear)"></path> <path d="M13.1349 6.91143C13.4071 6.0943 13.3134 5.19918 12.878 4.45593C12.2233 3.31593 10.907 2.72943 9.62152 3.00543C9.04964 2.36118 8.22802 1.99481 7.36665 2.00006C6.05265 1.99706 4.88677 2.84306 4.48252 4.09331C3.63839 4.26618 2.90977 4.79456 2.48339 5.54343C1.82377 6.68043 1.97414 8.11368 2.85539 9.08868C2.58314 9.9058 2.67689 10.8009 3.11227 11.5442C3.76702 12.6842 5.08327 13.2707 6.36877 12.9947C6.94027 13.6389 7.76227 14.0053 8.62365 13.9997C9.9384 14.0031 11.1046 13.1563 11.5089 11.9049C12.353 11.7321 13.0816 11.2037 13.508 10.4548C14.1669 9.3178 14.0158 7.88643 13.1349 6.91143ZM8.6244 13.2156C8.09827 13.2163 7.58864 13.0322 7.18477 12.6951C7.20315 12.6853 7.23502 12.6677 7.25565 12.6549L9.64515 11.2749C9.7674 11.2056 9.8424 11.0754 9.84165 10.9348V7.56618L10.8515 8.1493C10.8624 8.15455 10.8695 8.16505 10.871 8.17705V10.9667C10.8695 12.2072 9.8649 13.2129 8.6244 13.2156ZM3.79289 11.1519C3.52927 10.6967 3.43439 10.1631 3.52477 9.64518C3.54239 9.65568 3.57352 9.6748 3.59564 9.68755L5.98514 11.0676C6.10627 11.1384 6.25627 11.1384 6.37777 11.0676L9.2949 9.38305V10.5493C9.29565 10.5613 9.29002 10.5729 9.28065 10.5804L6.86527 11.9751C5.78939 12.5946 4.41502 12.2263 3.79289 11.1519ZM3.16402 5.93605C3.42652 5.48006 3.84089 5.1313 4.33439 4.95018C4.33439 4.97081 4.33327 5.00718 4.33327 5.03268V7.79305C4.33252 7.9333 4.40752 8.06343 4.52939 8.1328L7.44652 9.81693L6.43665 10.4001C6.42652 10.4068 6.41377 10.4079 6.40252 10.4031L3.98677 9.0073C2.91314 8.38555 2.54527 7.01155 3.16402 5.93605ZM11.4613 7.86693L8.54415 6.18243L9.55402 5.59968C9.56415 5.59293 9.5769 5.59181 9.58815 5.59668L12.0039 6.9913C13.0794 7.61268 13.448 8.98855 12.8266 10.0641C12.5638 10.5193 12.1498 10.8681 11.6566 11.0496V8.20668C11.6578 8.06643 11.5828 7.93668 11.4613 7.86693ZM12.4663 6.35418C12.4486 6.34331 12.4175 6.32455 12.3954 6.3118L10.0059 4.93181C9.88477 4.86093 9.73477 4.86093 9.61327 4.93181L6.69615 6.6163V5.45005C6.69539 5.43805 6.70102 5.42643 6.71039 5.41893L9.12577 4.02543C10.2016 3.40481 11.5771 3.77418 12.1974 4.85043C12.4595 5.30493 12.5551 5.83706 12.4663 6.35418ZM6.14714 8.4328L5.13689 7.84968C5.12602 7.84443 5.11889 7.83393 5.11739 7.82193V5.03231C5.11814 3.79031 6.12577 2.78381 7.36777 2.78456C7.89315 2.78456 8.40165 2.96906 8.80552 3.30506C8.78715 3.31481 8.75565 3.33243 8.73465 3.34518L6.34514 4.72518C6.22289 4.79456 6.14789 4.92431 6.14864 5.06493L6.14714 8.4328ZM6.69577 7.25005L7.99515 6.49968L9.29452 7.24968V8.75005L7.99515 9.50005L6.69577 8.75005V7.25005Z" fill="white"></path> <defs> <linearGradient id="ait-o3_linear" x1="16" y1="16" x2="0" y2="0" gradientUnits="userSpaceOnUse"> <stop offset="0.147401" stop-color="#C27AA9"></stop> <stop offset="0.749948" stop-color="#EC6A00"></stop> </linearGradient> </defs> </svg>