<svg class="ait-h-6 ait-w-6 ait-history_icon" width="1em" height="1em" viewBox="0 0 24 24" fill="none" xmlns="http://www.w3.org/2000/svg"><path fill-rule="evenodd" clip-rule="evenodd" d="M20 12C20 16.4183 16.4183 20 12 20C7.58172 20 4 16.4183 4 12C4 7.58172 7.58172 4 12 4C16.4183 4 20 7.58172 20 12ZM22 12C22 17.5228 17.5228 22 12 22C6.47715 22 2 17.5228 2 12C2 6.47715 6.47715 2 12 2C17.5228 2 22 6.47715 22 12ZM13 8.99939C12.9997 8.4471 12.5517 7.99966 11.9994 8C11.4471 8.00034 10.9997 8.44833 11 9.00061L11.0024 13.0006C11.0026 13.3347 11.1697 13.6466 11.4477 13.832L14.4471 15.832C14.9066 16.1384 15.5275 16.0143 15.8339 15.5548C16.1403 15.0953 16.0161 14.4744 15.5566 14.168L13.0021 12.4647L13 8.99939Z" fill="currentColor"></path></svg>